{
  "accessors": [
    {
      "bufferView": 2,
      "componentType": 5126,
      "count": 32,
      "max": [
        0.36418700218200684,
        0.7875159978866577,
        0.3126029968261719
      ],
      "min": [
        0.3454340100288391,
        -0.3914250135421753,
        -0.3126029968261719
      ],
      "type": "VEC3"
    },
    {
      "bufferView": 2,
      "byteOffset": 384,
      "componentType": 5126,
      "count": 32,
      "max": [
        0.932366669178009,
        1.0,
        1.0
      ],
      "min": [
        -8.742279788975793e-08,
        -1.0,
        -1.0
      ],
      "type": "VEC3"
    },
    {
      "bufferView": 3,
      "componentType": 5126,
      "count": 32,
      "max": [
        1.0,
        0.9323667883872986,
        0.9103010296821594,
        1.0
      ],
      "min": [
        -1.0,
        -0.9323667883872986,
        -0.9103010892868042,
        1.0
      ],
      "type": "VEC4"
    },
    {
      "bufferView": 1,
      "componentType": 5126,
      "count": 32,
      "max": [
        0.9941229820251465,
        0.6860700249671936
      ],
      "min": [
        0.8910490274429321,
        0.013569599948823452
      ],
      "type": "VEC2"
    },
    {
      "bufferView": 0,
      "componentType": 5125,
      "count": 72,
      "type": "SCALAR"
    },
    {
      "bufferView": 2,
      "byteOffset": 768,
      "componentType": 5126,
      "count": 32,
      "max": [
        0.3126029968261719,
        0.7875159978866577,
        0.36418700218200684
      ],
      "min": [
        -0.3126029968261719,
        -0.3914250135421753,
        0.3454340100288391
      ],
      "type": "VEC3"
    },
    {
      "bufferView": 2,
      "byteOffset": 1152,
      "componentType": 5126,
      "count": 32,
      "max": [
        1.0,
        1.0,
        0.932366669178009
      ],
      "min": [
        -1.0,
        -1.0,
        -7.549790126404332e-08
      ],
      "type": "VEC3"
    },
    {
      "bufferView": 3,
      "byteOffset": 512,
      "componentType": 5126,
      "count": 32,
      "max": [
        0.9103010892868042,
        0.9323667883872986,
        1.0,
        1.0
      ],
      "min": [
        -0.9103010296821594,
        -0.9323667883872986,
        -1.0,
        1.0
      ],
      "type": "VEC4"
    },
    {
      "bufferView": 1,
      "byteOffset": 256,
      "componentType": 5126,
      "count": 32,
      "max": [
        0.9941229820251465,
        0.6860700249671936
      ],
      "min": [
        0.8910490274429321,
        0.013569599948823452
      ],
      "type": "VEC2"
    },
    {
      "bufferView": 0,
      "byteOffset": 288,
      "componentType": 5125,
      "count": 72,
      "type": "SCALAR"
    },
    {
      "bufferView": 2,
      "byteOffset": 1536,
      "componentType": 5126,
      "count": 32,
      "max": [
        -0.3454340100288391,
        0.7875159978866577,
        0.3126029968261719
      ],
      "min": [
        -0.36418700218200684,
        -0.3914250135421753,
        -0.3126029968261719
      ],
      "type": "VEC3"
    },
    {
      "bufferView": 2,
      "byteOffset": 1920,
      "componentType": 5126,
      "count": 32,
      "max": [
        7.160940202898154e-15,
        1.0,
        1.0
      ],
      "min": [
        -0.932366669178009,
        -1.0,
        -1.0
      ],
      "type": "VEC3"
    },
    {
      "bufferView": 3,
      "byteOffset": 1024,
      "componentType": 5126,
      "count": 32,
      "max": [
        1.0,
        0.9323667883872986,
        0.9103010892868042,
        1.0
      ],
      "min": [
        -1.0,
        -0.9323667883872986,
        -0.9103010296821594,
        1.0
      ],
      "type": "VEC4"
    },
    {
      "bufferView": 1,
      "byteOffset": 512,
      "componentType": 5126,
      "count": 32,
      "max": [
        0.9941229820251465,
        0.6860700249671936
      ],
      "min": [
        0.8910490274429321,
        0.013569599948823452
      ],
      "type": "VEC2"
    },
    {
      "bufferView": 0,
      "byteOffset": 576,
      "componentType": 5125,
      "count": 72,
      "type": "SCALAR"
    },
    {
      "bufferView": 2,
      "byteOffset": 2304,
      "componentType": 5126,
      "count": 32,
      "max": [
        0.3126029968261719,
        0.7875159978866577,
        -0.3454340100288391
      ],
      "min": [
        -0.3126029968261719,
        -0.3914250135421753,
        -0.36418700218200684
      ],
      "type": "VEC3"
    },
    {
      "bufferView": 2,
      "byteOffset": 2688,
      "componentType": 5126,
      "count": 32,
      "max": [
        1.0,
        1.0,
        7.549790126404332e-08
      ],
      "min": [
        -1.0,
        -1.0,
        -0.932366669178009
      ],
      "type": "VEC3"
    },
    {
      "bufferView": 3,
      "byteOffset": 1536,
      "componentType": 5126,
      "count": 32,
      "max": [
        0.9103010296821594,
        0.9323667883872986,
        1.0,
        1.0
      ],
      "min": [
        -0.9103010892868042,
        -0.9323667883872986,
        -1.0,
        1.0
      ],
      "type": "VEC4"
    },
    {
      "bufferView": 1,
      "byteOffset": 768,
      "componentType": 5126,
      "count": 32,
      "max": [
        0.9941229820251465,
        0.6860700249671936
      ],
      "min": [
        0.8910490274429321,
        0.013569599948823452
      ],
      "type": "VEC2"
    },
    {
      "bufferView": 0,
      "byteOffset": 864,
      "componentType": 5125,
      "count": 72,
      "type": "SCALAR"
    },
    {
      "bufferView": 2,
      "byteOffset": 3072,
      "componentType": 5126,
      "count": 22,
      "max": [
        -0.1068279966711998,
        -0.18394899368286133,
        0.09622149914503098
      ],
      "min": [
        -0.13834500312805176,
        -0.29278799891471863,
        0.06470409780740738
      ],
      "type": "VEC3"
    },
    {
      "bufferView": 2,
      "byteOffset": 3336,
      "componentType": 5126,
      "count": 22,
      "max": [
        0.9998993873596191,
        1.0,
        0.9998993873596191
      ],
      "min": [
        -0.9998993873596191,
        -1.0,
        -0.9998993873596191
      ],
      "type": "VEC3"
    },
    {
      "bufferView": 3,
      "byteOffset": 2048,
      "componentType": 5126,
      "count": 22,
      "max": [
        0.9998811483383179,
        0.5358206033706665,
        0.9979551434516907,
        1.0
      ],
      "min": [
        -0.9999976754188538,
        -0.6453905701637268,
        -0.998741090297699,
        1.0
      ],
      "type": "VEC4"
    },
    {
      "bufferView": 1,
      "byteOffset": 1024,
      "componentType": 5126,
      "count": 22,
      "max": [
        0.5946769714355469,
        0.4646410048007965
      ],
      "min": [
        0.5264949798583984,
        0.39075300097465515
      ],
      "type": "VEC2"
    },
    {
      "bufferView": 0,
      "byteOffset": 1152,
      "componentType": 5125,
      "count": 72,
      "type": "SCALAR"
    },
    {
      "bufferView": 2,
      "byteOffset": 3600,
      "componentType": 5126,
      "count": 58,
      "max": [
        0.06937599927186966,
        -0.290336012840271,
        0.08331330120563507
      ],
      "min": [
        -0.12450399994850159,
        -0.39111000299453735,
        -0.07361070066690445
      ],
      "type": "VEC3"
    },
    {
      "bufferView": 2,
      "byteOffset": 4296,
      "componentType": 5126,
      "count": 58,
      "max": [
        0.9932167530059814,
        0.9983544945716858,
        0.9994469881057739
      ],
      "min": [
        -0.9912328720092773,
        -0.9977726340293884,
        -0.9918310046195984
      ],
      "type": "VEC3"
    },
    {
      "bufferView": 3,
      "byteOffset": 2400,
      "componentType": 5126,
      "count": 58,
      "max": [
        0.9827288389205933,
        0.9995667338371277,
        0.9663696885108948,
        1.0
      ],
      "min": [
        -0.9988074898719788,
        -0.9998562932014465,
        -0.966566801071167,
        1.0
      ],
      "type": "VEC4"
    },
    {
      "bufferView": 1,
      "byteOffset": 1200,
      "componentType": 5126,
      "count": 58,
      "max": [
        0.5199390053749084,
        0.5320780277252197
      ],
      "min": [
        0.4901829957962036,
        0.3904930055141449
      ],
      "type": "VEC2"
    },
    {
      "bufferView": 0,
      "byteOffset": 1440,
      "componentType": 5125,
      "count": 240,
      "type": "SCALAR"
    },
    {
      "bufferView": 2,
      "byteOffset": 4992,
      "componentType": 5126,
      "count": 58,
      "max": [
        0.163673996925354,
        -0.3303079903125763,
        0.163673996925354
      ],
      "min": [
        -0.163673996925354,
        -0.4153209924697876,
        -0.163674995303154
      ],
      "type": "VEC3"
    },
    {
      "bufferView": 2,
      "byteOffset": 5688,
      "componentType": 5126,
      "count": 58,
      "max": [
        0.8665231466293335,
        1.0,
        0.8665231466293335
      ],
      "min": [
        -0.8665231466293335,
        -1.0,
        -0.8665231466293335
      ],
      "type": "VEC3"
    },
    {
      "bufferView": 3,
      "byteOffset": 3328,
      "componentType": 5126,
      "count": 58,
      "max": [
        1.0,
        0.866523027420044,
        0.7307939529418945,
        1.0
      ],
      "min": [
        -0.49195483326911926,
        -0.8665231466293335,
        -0.7897173166275024,
        1.0
      ],
      "type": "VEC4"
    },
    {
      "bufferView": 1,
      "byteOffset": 1664,
      "componentType": 5126,
      "count": 58,
      "max": [
        0.8717439770698547,
        0.779977023601532
      ],
      "min": [
        0.723846971988678,
        0.521996021270752
      ],
      "type": "VEC2"
    },
    {
      "bufferView": 0,
      "byteOffset": 2400,
      "componentType": 5125,
      "count": 288,
      "type": "SCALAR"
    },
    {
      "bufferView": 2,
      "byteOffset": 6384,
      "componentType": 5126,
      "count": 92,
      "max": [
        0.027552900835871696,
        1.0,
        0.3126029968261719
      ],
      "min": [
        -0.027552900835871696,
        0.7879660129547119,
        -0.3126029968261719
      ],
      "type": "VEC3"
    },
    {
      "bufferView": 2,
      "byteOffset": 7488,
      "componentType": 5126,
      "count": 92,
      "max": [
        1.0,
        1.0,
        1.0
      ],
      "min": [
        -1.0,
        -1.0,
        -1.0
      ],
      "type": "VEC3"
    },
    {
      "bufferView": 3,
      "byteOffset": 4256,
      "componentType": 5126,
      "count": 92,
      "max": [
        1.0,
        1.0,
        1.0,
        1.0
      ],
      "min": [
        -1.0,
        -1.0,
        -1.0,
        1.0
      ],
      "type": "VEC4"
    },
    {
      "bufferView": 1,
      "byteOffset": 2128,
      "componentType": 5126,
      "count": 92,
      "max": [
        0.8258699774742126,
        0.9955580234527588
      ],
      "min": [
        0.5062209963798523,
        0.47716599702835083
      ],
      "type": "VEC2"
    },
    {
      "bufferView": 0,
      "byteOffset": 3552,
      "componentType": 5125,
      "count": 240,
      "type": "SCALAR"
    },
    {
      "bufferView": 2,
      "byteOffset": 8592,
      "componentType": 5126,
      "count": 8,
      "max": [
        0.3126029968261719,
        -0.4061470031738281,
        0.3126029968261719
      ],
      "min": [
        -0.3126029968261719,
        -0.4385490119457245,
        -0.3126029968261719
      ],
      "type": "VEC3"
    },
    {
      "bufferView": 2,
      "byteOffset": 8688,
      "componentType": 5126,
      "count": 8,
      "max": [
        0.0,
        1.0,
        1.6292099758175027e-07
      ],
      "min": [
        0.0,
        -1.0,
        -1.6292099758175027e-07
      ],
      "type": "VEC3"
    },
    {
      "bufferView": 3,
      "byteOffset": 5728,
      "componentType": 5126,
      "count": 8,
      "max": [
        1.0,
        0.0,
        0.0,
        1.0
      ],
      "min": [
        -1.0,
        0.0,
        0.0,
        1.0
      ],
      "type": "VEC4"
    },
    {
      "bufferView": 1,
      "byteOffset": 2864,
      "componentType": 5126,
      "count": 8,
      "max": [
        0.8562089800834656,
        1.0016499757766724
      ],
      "min": [
        0.5027660131454468,
        0.5603860020637512
      ],
      "type": "VEC2"
    },
    {
      "bufferView": 0,
      "byteOffset": 4512,
      "componentType": 5125,
      "count": 12,
      "type": "SCALAR"
    },
    {
      "bufferView": 2,
      "byteOffset": 8784,
      "componentType": 5126,
      "count": 16,
      "max": [
        0.3454340100288391,
        0.7879660129547119,
        0.3454340100288391
      ],
      "min": [
        -0.3454340100288391,
        -0.3909760117530823,
        -0.3454340100288391
      ],
      "type": "VEC3"
    },
    {
      "bufferView": 2,
      "byteOffset": 8976,
      "componentType": 5126,
      "count": 16,
      "max": [
        1.0,
        1.6292099758175027e-07,
        1.0
      ],
      "min": [
        -1.0,
        -1.6292099758175027e-07,
        -1.0
      ],
      "type": "VEC3"
    },
    {
      "bufferView": 3,
      "byteOffset": 5856,
      "componentType": 5126,
      "count": 16,
      "max": [
        1.0,
        0.0,
        1.0,
        1.0
      ],
      "min": [
        -1.0,
        -8.17327501794092e-15,
        -1.0,
        1.0
      ],
      "type": "VEC4"
    },
    {
      "bufferView": 1,
      "byteOffset": 2928,
      "componentType": 5126,
      "count": 16,
      "max": [
        0.2452480047941208,
        0.9928200244903564
      ],
      "min": [
        0.01683099940419197,
        0.6030359864234924
      ],
      "type": "VEC2"
    },
    {
      "bufferView": 0,
      "byteOffset": 4560,
      "componentType": 5125,
      "count": 24,
      "type": "SCALAR"
    },
    {
      "bufferView": 2,
      "byteOffset": 9168,
      "componentType": 5126,
      "count": 40,
      "max": [
        0.37214699387550354,
        -0.3909760117530823,
        0.37214699387550354
      ],
      "min": [
        -0.37214699387550354,
        -0.45276200771331787,
        -0.37214699387550354
      ],
      "type": "VEC3"
    },
    {
      "bufferView": 2,
      "byteOffset": 9648,
      "componentType": 5126,
      "count": 40,
      "max": [
        0.7071068286895752,
        0.7071068286895752,
        0.7071068286895752
      ],
      "min": [
        -0.7071068286895752,
        -0.7071068286895752,
        -0.7071068286895752
      ],
      "type": "VEC3"
    },
    {
      "bufferView": 3,
      "byteOffset": 6112,
      "componentType": 5126,
      "count": 40,
      "max": [
        1.0,
        8.980584311757411e-07,
        1.0,
        1.0
      ],
      "min": [
        -1.0,
        -2.3683346626057755e-06,
        -1.0,
        1.0
      ],
      "type": "VEC4"
    },
    {
      "bufferView": 1,
      "byteOffset": 3056,
      "componentType": 5126,
      "count": 40,
      "max": [
        0.4874809980392456,
        0.9711949825286865
      ],
      "min": [
        0.2798900008201599,
        0.6023730039596558
      ],
      "type": "VEC2"
    },
    {
      "bufferView": 0,
      "byteOffset": 4656,
      "componentType": 5125,
      "count": 96,
      "type": "SCALAR"
    },
    {
      "bufferView": 2,
      "byteOffset": 10128,
      "componentType": 5126,
      "count": 20,
      "max": [
        0.4227829873561859,
        -0.8732020258903503,
        0.4227829873561859
      ],
      "min": [
        -0.4227829873561859,
        -1.0,
        -0.4227829873561859
      ],
      "type": "VEC3"
    },
    {
      "bufferView": 2,
      "byteOffset": 10368,
      "componentType": 5126,
      "count": 20,
      "max": [
        0.9836831092834473,
        1.0,
        0.9836831092834473
      ],
      "min": [
        -0.9836831092834473,
        0.17991001904010773,
        -0.9836831092834473
      ],
      "type": "VEC3"
    },
    {
      "bufferView": 3,
      "byteOffset": 6752,
      "componentType": 5126,
      "count": 20,
      "max": [
        1.0,
        1.6292099758175027e-07,
        1.0,
        1.0
      ],
      "min": [
        -1.0,
        -5.2733613031819004e-09,
        -1.0,
        1.0
      ],
      "type": "VEC4"
    },
    {
      "bufferView": 1,
      "byteOffset": 3376,
      "componentType": 5126,
      "count": 20,
      "max": [
        0.8746860027313232,
        0.5104449987411499
      ],
      "min": [
        0.5951229929924011,
        0.013371599838137627
      ],
      "type": "VEC2"
    },
    {
      "bufferView": 0,
      "byteOffset": 5040,
      "componentType": 5125,
      "count": 30,
      "type": "SCALAR"
    },
    {
      "bufferView": 2,
      "byteOffset": 10608,
      "componentType": 5126,
      "count": 88,
      "max": [
        0.37214699387550354,
        0.8497520089149475,
        0.37214699387550354
      ],
      "min": [
        -0.37214699387550354,
        -0.8732020258903503,
        -0.37214699387550354
      ],
      "type": "VEC3"
    },
    {
      "bufferView": 2,
      "byteOffset": 11664,
      "componentType": 5126,
      "count": 88,
      "max": [
        0.9045397043228149,
        0.9045397043228149,
        0.9045397043228149
      ],
      "min": [
        -0.9045397043228149,
        -0.5773503184318542,
        -0.9045397043228149
      ],
      "type": "VEC3"
    },
    {
      "bufferView": 3,
      "byteOffset": 7072,
      "componentType": 5126,
      "count": 88,
      "max": [
        1.0,
        0.7071068286895752,
        0.9534653425216675,
        1.0
      ],
      "min": [
        -0.4082486927509308,
        -1.0,
        -0.7071068286895752,
        1.0
      ],
      "type": "VEC4"
    },
    {
      "bufferView": 1,
      "byteOffset": 3536,
      "componentType": 5126,
      "count": 88,
      "max": [
        0.572143018245697,
        0.5833269953727722
      ],
      "min": [
        0.002489520004019141,
        0.01275589969009161
      ],
      "type": "VEC2"
    },
    {
      "bufferView": 0,
      "byteOffset": 5160,
      "componentType": 5125,
      "count": 216,
      "type": "SCALAR"
    }
  ],
  "asset": {
    "extras": {
      "author": "K (https://sketchfab.com/tanaka.ko91)",
      "license": "CC-BY-4.0 (http://creativecommons.org/licenses/by/4.0/)",
      "source": "https://sketchfab.com/3d-models/old-japanese-lamp-andon-0f5cff9fb78b4657b26ddefff4e10fcf",
      "title": "Old Japanese Lamp : Andon"
    },
    "generator": "Sketchfab-12.68.0",
    "version": "2.0"
  },
  "bufferViews": [
    {
      "buffer": 0,
      "byteLength": 6024,
      "name": "floatBufferViews",
      "target": 34963
    },
    {
      "buffer": 0,
      "byteLength": 4240,
      "byteOffset": 6024,
      "byteStride": 8,
      "name": "floatBufferViews",
      "target": 34962
    },
    {
      "buffer": 0,
      "byteLength": 12720,
      "byteOffset": 10264,
      "byteStride": 12,
      "name": "floatBufferViews",
      "target": 34962
    },
    {
      "buffer": 0,
      "byteLength": 8480,
      "byteOffset": 22984,
      "byteStride": 16,
      "name": "floatBufferViews",
      "target": 34962
    }
  ],
  "buffers": [
    {
      "byteLength": 31464,
      "uri": "scene.bin"
    }
  ],
  "images": [
    {
      "uri": "textures/DefaultMaterial_baseColor.jpeg"
    },
    {
      "uri": "textures/DefaultMaterial_metallicRoughness.png"
    },
    {
      "uri": "textures/DefaultMaterial_emissive.jpeg"
    },
    {
      "uri": "textures/DefaultMaterial_normal.png"
    }
  ],
  "materials": [
    {
      "doubleSided": true,
      "emissiveFactor": [
        1.0,
        1.0,
        1.0
      ],
      "emissiveTexture": {
        "index": 2
      },
      "name": "DefaultMaterial",
      "normalTexture": {
        "index": 3
      },
      "occlusionTexture": {
        "index": 1,
        "strength": 0.6724466463414634
      },
      "pbrMetallicRoughness": {
        "baseColorTexture": {
          "index": 0
        },
        "metallicRoughnessTexture": {
          "index": 1
        }
      }
    }
  ],
  "meshes": [
    {
      "name": "defaultMaterial",
      "primitives": [
        {
          "attributes": {
            "NORMAL": 1,
            "POSITION": 0,
            "TANGENT": 2,
            "TEXCOORD_0": 3
          },
          "indices": 4,
          "material": 0,
          "mode": 4
        }
      ]
    },
    {
      "name": "defaultMaterial",
      "primitives": [
        {
          "attributes": {
            "NORMAL": 6,
            "POSITION": 5,
            "TANGENT": 7,
            "TEXCOORD_0": 8
          },
          "indices": 9,
          "material": 0,
          "mode": 4
        }
      ]
    },
    {
      "name": "defaultMaterial",
      "primitives": [
        {
          "attributes": {
            "NORMAL": 11,
            "POSITION": 10,
            "TANGENT": 12,
            "TEXCOORD_0": 13
          },
          "indices": 14,
          "material": 0,
          "mode": 4
        }
      ]
    },
    {
      "name": "defaultMaterial",
      "primitives": [
        {
          "attributes": {
            "NORMAL": 16,
            "POSITION": 15,
            "TANGENT": 17,
            "TEXCOORD_0": 18
          },
          "indices": 19,
          "material": 0,
          "mode": 4
        }
      ]
    },
    {
      "name": "defaultMaterial",
      "primitives": [
        {
          "attributes": {
            "NORMAL": 21,
            "POSITION": 20,
            "TANGENT": 22,
            "TEXCOORD_0": 23
          },
          "indices": 24,
          "material": 0,
          "mode": 4
        }
      ]
    },
    {
      "name": "defaultMaterial",
      "primitives": [
        {
          "attributes": {
            "NORMAL": 26,
            "POSITION": 25,
            "TANGENT": 27,
            "TEXCOORD_0": 28
          },
          "indices": 29,
          "material": 0,
          "mode": 4
        }
      ]
    },
    {
      "name": "defaultMaterial",
      "primitives": [
        {
          "attributes": {
            "NORMAL": 31,
            "POSITION": 30,
            "TANGENT": 32,
            "TEXCOORD_0": 33
          },
          "indices": 34,
          "material": 0,
          "mode": 4
        }
      ]
    },
    {
      "name": "defaultMaterial",
      "primitives": [
        {
          "attributes": {
            "NORMAL": 36,
            "POSITION": 35,
            "TANGENT": 37,
            "TEXCOORD_0": 38
          },
          "indices": 39,
          "material": 0,
          "mode": 4
        }
      ]
    },
    {
      "name": "defaultMaterial",
      "primitives": [
        {
          "attributes": {
            "NORMAL": 41,
            "POSITION": 40,
            "TANGENT": 42,
            "TEXCOORD_0": 43
          },
          "indices": 44,
          "material": 0,
          "mode": 4
        }
      ]
    },
    {
      "name": "defaultMaterial",
      "primitives": [
        {
          "attributes": {
            "NORMAL": 46,
            "POSITION": 45,
            "TANGENT": 47,
            "TEXCOORD_0": 48
          },
          "indices": 49,
          "material": 0,
          "mode": 4
        }
      ]
    },
    {
      "name": "defaultMaterial",
      "primitives": [
        {
          "attributes": {
            "NORMAL": 51,
            "POSITION": 50,
            "TANGENT": 52,
            "TEXCOORD_0": 53
          },
          "indices": 54,
          "material": 0,
          "mode": 4
        }
      ]
    },
    {
      "name": "defaultMaterial",
      "primitives": [
        {
          "attributes": {
            "NORMAL": 56,
            "POSITION": 55,
            "TANGENT": 57,
            "TEXCOORD_0": 58
          },
          "indices": 59,
          "material": 0,
          "mode": 4
        }
      ]
    },
    {
      "name": "defaultMaterial",
      "primitives": [
        {
          "attributes": {
            "NORMAL": 61,
            "POSITION": 60,
            "TANGENT": 62,
            "TEXCOORD_0": 63
          },
          "indices": 64,
          "material": 0,
          "mode": 4
        }
      ]
    }
  ],
  "nodes": [
    {
      "children": [
        1
      ],
      "matrix": [
        1.0,
        0.0,
        0.0,
        0.0,
        0.0,
        2.220446049250313e-16,
        -1.0,
        0.0,
        0.0,
        1.0,
        2.220446049250313e-16,
        0.0,
        0.0,
        0.0,
        0.0,
        1.0
      ],
      "name": "Sketchfab_model"
    },
    {
      "children": [
        2,
        4,
        6,
        8,
        10,
        12,
        14,
        16,
        18,
        20,
        22,
        24,
        26
      ],
      "matrix": [
        1.0,
        0.0,
        0.0,
        0.0,
        0.0,
        -4.371139006309477e-08,
        0.999999999999999,
        0.0,
        0.0,
        -0.999999999999999,
        -4.371139006309477e-08,
        0.0,
        0.0,
        0.0,
        0.0,
        1.0
      ],
      "name": "Collada visual scene group"
    },
    {
      "children": [
        3
      ],
      "name": "DD_low.004"
    },
    {
      "mesh": 0,
      "name": "defaultMaterial"
    },
    {
      "children": [
        5
      ],
      "name": "DD_low.003"
    },
    {
      "mesh": 1,
      "name": "defaultMaterial"
    },
    {
      "children": [
        7
      ],
      "name": "DD_low.002"
    },
    {
      "mesh": 2,
      "name": "defaultMaterial"
    },
    {
      "children": [
        9
      ],
      "name": "DD_low.001"
    },
    {
      "mesh": 3,
      "name": "defaultMaterial"
    },
    {
      "children": [
        11
      ],
      "name": "G_low.001"
    },
    {
      "mesh": 4,
      "name": "defaultMaterial"
    },
    {
      "children": [
        13
      ],
      "name": "E_low.001"
    },
    {
      "mesh": 5,
      "name": "defaultMaterial"
    },
    {
      "children": [
        15
      ],
      "name": "F_low.001"
    },
    {
      "mesh": 6,
      "name": "defaultMaterial"
    },
    {
      "children": [
        17
      ],
      "name": "I_low.001"
    },
    {
      "mesh": 7,
      "name": "defaultMaterial"
    },
    {
      "children": [
        19
      ],
      "name": "H_low.001"
    },
    {
      "mesh": 8,
      "name": "defaultMaterial"
    },
    {
      "children": [
        21
      ],
      "name": "D_low.001"
    },
    {
      "mesh": 9,
      "name": "defaultMaterial"
    },
    {
      "children": [
        23
      ],
      "name": "C_low.001"
    },
    {
      "mesh": 10,
      "name": "defaultMaterial"
    },
    {
      "children": [
        25
      ],
      "name": "B_low.001"
    },
    {
      "mesh": 11,
      "name": "defaultMaterial"
    },
    {
      "children": [
        27
      ],
      "name": "A_low.001"
    },
    {
      "mesh": 12,
      "name": "defaultMaterial"
    }
  ],
  "samplers": [
    {
      "magFilter": 9729,
      "minFilter": 9987,
      "wrapS": 10497,
      "wrapT": 10497
    }
  ],
  "scene": 0,
  "scenes": [
    {
      "name": "Sketchfab_Scene",
      "nodes": [
        0
      ]
    }
  ],
  "textures": [
    {
      "sampler": 0,
      "source": 0
    },
    {
      "sampler": 0,
      "source": 1
    },
    {
      "sampler": 0,
      "source": 2
    },
    {
      "sampler": 0,
      "source": 3
    }
  ]
}
